<svg xmlns="http://www.w3.org/2000/svg" viewBox="0 0 100 100">
  <defs>
    <linearGradient id="brainGradient" x1="0%" y1="0%" x2="100%" y2="100%">
      <stop offset="0%" style="stop-color:#9b7ed6;stop-opacity:1" />
      <stop offset="100%" style="stop-color:#e8b4d9;stop-opacity:1" />
    </linearGradient>
  </defs>
  
  <!-- Background circle -->
  <circle cx="50" cy="50" r="48" fill="url(#brainGradient)" opacity="0.1"/>
  
  <!-- Brain outline -->
  <path d="M 30 35 Q 25 30, 25 25 Q 25 18, 32 18 Q 35 18, 38 21 Q 40 18, 43 18 Q 48 18, 50 22 Q 52 18, 57 18 Q 62 18, 65 21 Q 68 18, 71 18 Q 78 18, 78 25 Q 78 30, 73 35 L 73 55 Q 73 60, 70 65 Q 68 70, 63 72 Q 60 74, 56 74 L 44 74 Q 40 74, 37 72 Q 32 70, 30 65 Q 27 60, 27 55 Z" 
        fill="none" 
        stroke="url(#brainGradient)" 
        stroke-width="3" 
        stroke-linecap="round" 
        stroke-linejoin="round"/>
  
  <!-- Brain details -->
  <path d="M 35 28 Q 38 32, 42 32" 
        fill="none" 
        stroke="url(#brainGradient)" 
        stroke-width="2.5" 
        stroke-linecap="round"/>
  <path d="M 45 30 Q 50 34, 55 30" 
        fill="none" 
        stroke="url(#brainGradient)" 
        stroke-width="2.5" 
        stroke-linecap="round"/>
  <path d="M 58 32 Q 62 32, 65 28" 
        fill="none" 
        stroke="url(#brainGradient)" 
        stroke-width="2.5" 
        stroke-linecap="round"/>
  <path d="M 32 42 Q 35 45, 40 45" 
        fill="none" 
        stroke="url(#brainGradient)" 
        stroke-width="2.5" 
        stroke-linecap="round"/>
  <path d="M 60 45 Q 65 45, 68 42" 
        fill="none" 
        stroke="url(#brainGradient)" 
        stroke-width="2.5" 
        stroke-linecap="round"/>
  <path d="M 35 55 Q 40 58, 45 56" 
        fill="none" 
        stroke="url(#brainGradient)" 
        stroke-width="2.5" 
        stroke-linecap="round"/>
  <path d="M 55 56 Q 60 58, 65 55" 
        fill="none" 
        stroke="url(#brainGradient)" 
        stroke-width="2.5" 
        stroke-linecap="round"/>
  
  <!-- Heart accent -->
  <path d="M 50 48 L 44 54 Q 43 55, 43 57 Q 43 60, 46 62 Q 48 64, 50 66 Q 52 64, 54 62 Q 57 60, 57 57 Q 57 55, 56 54 Z" 
        fill="#e8b4d9" 
        opacity="0.8"/>
</svg>
